<svg width="15" height="15" viewBox="0 0 15 15" fill="none" xmlns="http://www.w3.org/2000/svg">
<path d="M10.1188 1.25H4.88125C2.60625 1.25 1.25 2.60625 1.25 4.88125V10.1125C1.25 12.3938 2.60625 13.75 4.88125 13.75H10.1125C12.3875 13.75 13.7437 12.3938 13.7437 10.1188V4.88125C13.75 2.60625 12.3938 1.25 10.1188 1.25ZM10.7812 7.70625C10.7812 7.9625 10.5688 8.175 10.3125 8.175C10.0562 8.175 9.84375 7.9625 9.84375 7.70625V5.81875L5.01875 10.6438C4.925 10.7375 4.80625 10.7812 4.6875 10.7812C4.56875 10.7812 4.45 10.7375 4.35625 10.6438C4.175 10.4625 4.175 10.1625 4.35625 9.98125L9.18125 5.15625H7.29375C7.0375 5.15625 6.825 4.94375 6.825 4.6875C6.825 4.43125 7.0375 4.21875 7.29375 4.21875H10.3125C10.5688 4.21875 10.7812 4.43125 10.7812 4.6875V7.70625Z" fill="#AEE665"/>
</svg>
