<svg width="44" height="44" viewBox="0 0 44 44" fill="none" xmlns="http://www.w3.org/2000/svg">
<path d="M3.22183 40.7781C6.44365 44 11.6291 44 22 44C32.3708 44 37.5564 44 40.7781 40.7781C44 37.5564 44 32.3708 44 22C44 11.6291 44 6.44365 40.7781 3.22183C37.5564 -3.49681e-07 32.3708 0 22 0C11.6291 0 6.44365 -3.49681e-07 3.22183 3.22183C-3.49681e-07 6.44365 0 11.6291 0 22C0 32.3708 -3.49681e-07 37.5564 3.22183 40.7781Z" fill="#FDF0FF"/>
<rect x="7.33398" y="13.2002" width="29.3333" height="2.93333" rx="1.46667" fill="#A808C8"/>
<rect x="7.33398" y="20.5332" width="14.6667" height="2.93333" rx="1.46667" fill="#A808C8"/>
<rect x="7.33398" y="27.8662" width="24.9333" height="2.93333" rx="1.46667" fill="#A808C8"/>
</svg>
