<svg width="30" height="30" viewBox="0 0 30 30" fill="none" xmlns="http://www.w3.org/2000/svg">
<path d="M2.1967 27.8032C4.39339 30 7.92893 30 15 30C22.071 30 25.6066 30 27.8032 27.8032C30 25.6066 30 22.071 30 15C30 7.92893 30 4.39339 27.8032 2.1967C25.6066 -2.38419e-07 22.071 0 15 0C7.92893 0 4.39339 -2.38419e-07 2.1967 2.1967C-2.38419e-07 4.39339 0 7.92893 0 15C0 22.071 -2.38419e-07 25.6066 2.1967 27.8032Z" fill="#FFF0DC"/>
<path d="M4.43934 9.56065C4.87868 10 5.58579 10 7 10C8.4142 10 9.12133 10 9.56065 9.56065C10 9.12133 10 8.4142 10 7C10 5.58579 10 4.87868 9.56065 4.43934C9.12133 4 8.4142 4 7 4C5.58579 4 4.87868 4 4.43934 4.43934C4 4.87868 4 5.58579 4 7C4 8.4142 4 9.12133 4.43934 9.56065Z" fill="#FF1818" fill-opacity="0.3"/>
<path d="M4.43934 17.5606C4.87868 18 5.58579 18 7 18C8.4142 18 9.12133 18 9.56065 17.5606C10 17.1213 10 16.4142 10 15C10 13.5858 10 12.8787 9.56065 12.4393C9.12133 12 8.4142 12 7 12C5.58579 12 4.87868 12 4.43934 12.4393C4 12.8787 4 13.5858 4 15C4 16.4142 4 17.1213 4.43934 17.5606Z" fill="#FF1818" fill-opacity="0.3"/>
<path d="M4.43934 25.5606C4.87868 26 5.58579 26 7 26C8.4142 26 9.12133 26 9.56065 25.5606C10 25.1213 10 24.4142 10 23C10 21.5858 10 20.8787 9.56065 20.4393C9.12133 20 8.4142 20 7 20C5.58579 20 4.87868 20 4.43934 20.4393C4 20.8787 4 21.5858 4 23C4 24.4142 4 25.1213 4.43934 25.5606Z" fill="#FF1818" fill-opacity="0.3"/>
<path d="M12.4393 9.56065C12.8787 10 13.5858 10 15 10C16.4142 10 17.1213 10 17.5606 9.56065C18 9.12133 18 8.4142 18 7C18 5.58579 18 4.87868 17.5606 4.43934C17.1213 4 16.4142 4 15 4C13.5858 4 12.8787 4 12.4393 4.43934C12 4.87868 12 5.58579 12 7C12 8.4142 12 9.12133 12.4393 9.56065Z" fill="#FF1818" fill-opacity="0.3"/>
<path d="M12.4393 17.5606C12.8787 18 13.5858 18 15 18C16.4142 18 17.1213 18 17.5606 17.5606C18 17.1213 18 16.4142 18 15C18 13.5858 18 12.8787 17.5606 12.4393C17.1213 12 16.4142 12 15 12C13.5858 12 12.8787 12 12.4393 12.4393C12 12.8787 12 13.5858 12 15C12 16.4142 12 17.1213 12.4393 17.5606Z" fill="#FF1818" fill-opacity="0.3"/>
<path d="M12.4393 25.5606C12.8787 26 13.5858 26 15 26C16.4142 26 17.1213 26 17.5606 25.5606C18 25.1213 18 24.4142 18 23C18 21.5858 18 20.8787 17.5606 20.4393C17.1213 20 16.4142 20 15 20C13.5858 20 12.8787 20 12.4393 20.4393C12 20.8787 12 21.5858 12 23C12 24.4142 12 25.1213 12.4393 25.5606Z" fill="#FF1818" fill-opacity="0.3"/>
<path d="M20.4393 9.56065C20.8787 10 21.5858 10 23 10C24.4142 10 25.1213 10 25.5606 9.56065C26 9.12133 26 8.4142 26 7C26 5.58579 26 4.87868 25.5606 4.43934C25.1213 4 24.4142 4 23 4C21.5858 4 20.8787 4 20.4393 4.43934C20 4.87868 20 5.58579 20 7C20 8.4142 20 9.12133 20.4393 9.56065Z" fill="#FF1818" fill-opacity="0.3"/>
<path d="M20.4393 17.5606C20.8787 18 21.5858 18 23 18C24.4142 18 25.1213 18 25.5606 17.5606C26 17.1213 26 16.4142 26 15C26 13.5858 26 12.8787 25.5606 12.4393C25.1213 12 24.4142 12 23 12C21.5858 12 20.8787 12 20.4393 12.4393C20 12.8787 20 13.5858 20 15C20 16.4142 20 17.1213 20.4393 17.5606Z" fill="#FF1818" fill-opacity="0.3"/>
<path d="M20.4393 25.5606C20.8787 26 21.5858 26 23 26C24.4142 26 25.1213 26 25.5606 25.5606C26 25.1213 26 24.4142 26 23C26 21.5858 26 20.8787 25.5606 20.4393C25.1213 20 24.4142 20 23 20C21.5858 20 20.8787 20 20.4393 20.4393C20 20.8787 20 21.5858 20 23C20 24.4142 20 25.1213 20.4393 25.5606Z" fill="#FF1818"/>
</svg>
