<svg width="19" height="19" viewBox="0 0 19 19" fill="none" xmlns="http://www.w3.org/2000/svg">
<path d="M9.3375 18.75C8.00417 18.75 6.77083 18.5167 5.6375 18.05C4.50417 17.5917 3.51667 16.95 2.675 16.125C1.83333 15.2917 1.175 14.3125 0.7 13.1875C0.233333 12.0625 1.41561e-07 10.8375 1.41561e-07 9.5125C1.41561e-07 8.10417 0.229167 6.82083 0.6875 5.6625C1.14583 4.49583 1.79167 3.49167 2.625 2.65C3.46667 1.8 4.4625 1.14583 5.6125 0.6875C6.7625 0.229166 8.025 -1.01328e-06 9.4 -1.01328e-06C10.975 -1.01328e-06 12.35 0.254166 13.525 0.762499C14.7083 1.2625 15.6833 1.94583 16.45 2.8125C17.2167 3.67083 17.775 4.6375 18.125 5.7125C18.4833 6.7875 18.6333 7.9 18.575 9.05C18.4917 10.625 18.1167 11.8125 17.45 12.6125C16.7917 13.4125 15.8708 13.8125 14.6875 13.8125C13.9208 13.8125 13.2542 13.6333 12.6875 13.275C12.1208 12.9167 11.7417 12.4125 11.55 11.7625L12.15 11.825C11.8583 12.4167 11.4208 12.8458 10.8375 13.1125C10.2625 13.3792 9.6625 13.5125 9.0375 13.5125C8.27917 13.5125 7.6125 13.35 7.0375 13.025C6.47083 12.6917 6.025 12.2333 5.7 11.65C5.38333 11.0667 5.225 10.3917 5.225 9.625C5.225 8.825 5.39167 8.13333 5.725 7.55C6.05833 6.96667 6.51667 6.51667 7.1 6.2C7.68333 5.88333 8.34167 5.725 9.075 5.725C9.61667 5.725 10.175 5.8375 10.75 6.0625C11.3333 6.2875 11.7792 6.65417 12.0875 7.1625L11.6 7.7125V6.075H12.925L12.9125 10.1375C12.9125 10.7542 13.0542 11.2583 13.3375 11.65C13.6292 12.0333 14.1083 12.225 14.775 12.225C15.225 12.225 15.6 12.1 15.9 11.85C16.2083 11.6 16.4458 11.25 16.6125 10.8C16.7792 10.3417 16.875 9.80417 16.9 9.1875C16.95 7.92083 16.7875 6.8125 16.4125 5.8625C16.0375 4.9125 15.5042 4.12083 14.8125 3.4875C14.1208 2.84583 13.3167 2.36667 12.4 2.05C11.4917 1.73333 10.5208 1.575 9.4875 1.575C8.2375 1.575 7.125 1.78333 6.15 2.2C5.18333 2.61667 4.3625 3.19167 3.6875 3.925C3.02083 4.65833 2.51667 5.50417 2.175 6.4625C1.83333 7.4125 1.67083 8.425 1.6875 9.5C1.69583 10.6083 1.89583 11.6333 2.2875 12.575C2.6875 13.5083 3.2375 14.3208 3.9375 15.0125C4.6375 15.6958 5.45417 16.225 6.3875 16.6C7.32083 16.9833 8.33333 17.175 9.425 17.175C10.1333 17.175 10.8417 17.0833 11.55 16.9C12.2667 16.7167 12.9042 16.4625 13.4625 16.1375L14.05 17.5375C13.325 17.9458 12.5625 18.25 11.7625 18.45C10.9625 18.65 10.1542 18.75 9.3375 18.75ZM9.1375 11.9125C9.7875 11.9125 10.3167 11.725 10.725 11.35C11.1417 10.975 11.35 10.3958 11.35 9.6125C11.35 8.84583 11.15 8.26667 10.75 7.875C10.3583 7.48333 9.83333 7.2875 9.175 7.2875C8.425 7.2875 7.85 7.49167 7.45 7.9C7.05833 8.30833 6.8625 8.87917 6.8625 9.6125C6.8625 10.3542 7.06667 10.925 7.475 11.325C7.88333 11.7167 8.4375 11.9125 9.1375 11.9125Z" fill="#A808C8"/>
</svg>
