<svg width="44" height="44" viewBox="0 0 44 44" fill="none" xmlns="http://www.w3.org/2000/svg">
<path d="M3.22183 40.7781C6.44365 44 11.6291 44 22 44C32.3708 44 37.5564 44 40.7781 40.7781C44 37.5564 44 32.3708 44 22C44 11.6291 44 6.44365 40.7781 3.22183C37.5564 -3.49681e-07 32.3708 0 22 0C11.6291 0 6.44365 -3.49681e-07 3.22183 3.22183C-3.49681e-07 6.44365 0 11.6291 0 22C0 32.3708 -3.49681e-07 37.5564 3.22183 40.7781Z" fill="#FDF0FF"/>
<path d="M15.1258 10.6328C15.5814 10.6328 15.9508 11.0022 15.9508 11.4578V13.4928L17.8435 13.1143C19.6591 12.7511 21.5411 12.9239 23.2602 13.6116L23.4842 13.7012C25.2015 14.3881 27.0916 14.5164 28.8859 14.0678C29.7189 13.8595 30.5258 14.4896 30.5258 15.3482V23.4519C30.5258 24.1606 30.0434 24.7784 29.3558 24.9503L29.12 25.0093C27.1734 25.4959 25.1231 25.3568 23.2602 24.6116C21.5411 23.9239 19.6591 23.7512 17.8435 24.1143L15.9508 24.4928V33.4578C15.9508 33.9134 15.5814 34.2828 15.1258 34.2828C14.6702 34.2828 14.3008 33.9134 14.3008 33.4578V11.4578C14.3008 11.0022 14.6702 10.6328 15.1258 10.6328Z" fill="#A808C8"/>
</svg>
