<svg width="16" height="14" viewBox="0 0 16 14" fill="none" xmlns="http://www.w3.org/2000/svg">
<path d="M11.72 0H4.28C1.92 0 0 1.92 0 4.28V8.744C0 11.104 1.92 13.024 4.28 13.024H11.72C14.08 13.024 16 11.104 16 8.744V4.28C16 1.92 14.08 0 11.72 0ZM10 5.04C10 4.6 10.36 4.24 10.8 4.24C11.24 4.24 11.6 4.6 11.6 5.04C11.6 5.48 11.24 5.848 10.8 5.848C10.36 5.848 10 5.496 10 5.056V5.04ZM6.504 8.28C6.384 8.4 6.232 8.456 6.08 8.456C5.928 8.456 5.776 8.4 5.656 8.28L4.832 7.456L4.04 8.248C3.92 8.368 3.768 8.424 3.616 8.424C3.464 8.424 3.312 8.368 3.192 8.248C2.96 8.016 2.96 7.632 3.192 7.4L3.984 6.608L3.216 5.84C2.984 5.608 2.984 5.224 3.216 4.992C3.448 4.76 3.832 4.76 4.064 4.992L4.832 5.76L5.624 4.968C5.856 4.736 6.24 4.736 6.472 4.968C6.704 5.2 6.704 5.584 6.472 5.816L5.68 6.608L6.504 7.432C6.736 7.664 6.736 8.048 6.504 8.28ZM9.232 7.424C8.792 7.424 8.424 7.064 8.424 6.624C8.424 6.184 8.776 5.824 9.216 5.824H9.232C9.672 5.824 10.032 6.184 10.032 6.624C10.032 7.064 9.68 7.424 9.232 7.424ZM10.8 9C10.36 9 10 8.648 10 8.208V8.192C10 7.752 10.36 7.392 10.8 7.392C11.24 7.392 11.6 7.752 11.6 8.192C11.6 8.632 11.248 9 10.8 9ZM12.384 7.424C11.944 7.424 11.576 7.064 11.576 6.624C11.576 6.184 11.928 5.824 12.368 5.824H12.384C12.824 5.824 13.184 6.184 13.184 6.624C13.184 7.064 12.832 7.424 12.384 7.424Z" fill="#A808C8"/>
</svg>
