<svg width="16" height="16" viewBox="0 0 16 16" fill="none" xmlns="http://www.w3.org/2000/svg">
<path d="M16 4.648V8.4H12.736C12.64 8.392 12.432 8.272 12.384 8.184L11.552 6.608C11.224 5.984 10.656 5.632 10.048 5.664C9.44 5.696 8.92 6.104 8.656 6.768L7.552 9.536L7.392 9.12C7 8.104 5.88 7.336 4.776 7.336L0 7.36V4.648C0 1.736 1.736 0 4.648 0H11.352C14.264 0 16 1.736 16 4.648Z" fill="#FF5151"/>
<path d="M16 11.3517V9.59973H12.736C12.2 9.59973 11.568 9.21573 11.32 8.74373L10.488 7.16773C10.264 6.74373 9.944 6.76773 9.768 7.20773L7.928 11.8557C7.728 12.3757 7.392 12.3757 7.184 11.8557L6.272 9.55173C6.056 8.99172 5.384 8.53573 4.784 8.53573L0 8.55973V11.3517C0 14.2157 1.68 15.9437 4.504 15.9917C4.592 15.9997 4.688 15.9997 4.776 15.9997H11.176C11.296 15.9997 11.416 15.9997 11.528 15.9917C14.336 15.9277 16 14.2077 16 11.3517Z" fill="#FF5151"/>
</svg>
