<svg width="30" height="30" viewBox="0 0 30 30" fill="none" xmlns="http://www.w3.org/2000/svg">

  <path
    d="M2.1967 27.8032C4.39339 30 7.92893 30 15 30C22.071 30 25.6066 30 27.8032 27.8032C30 25.6066 30 22.071 30 15C30 7.92893 30 4.39339 27.8032 2.1967C25.6066 -2.38419e-07 22.071 0 15 0C7.92893 0 4.39339 -2.38419e-07 2.1967 2.1967C-2.38419e-07 4.39339 0 7.92893 0 15C0 22.071 -2.38419e-07 25.6066 2.1967 27.8032Z"
    fill="#FFF0DC"
  />

  <path
    d="M5.61092 24.389C7.22182 26 9.81455 26 15 26C20.1854 26 22.7782 26 24.389 24.389C26 22.7782 26 20.1854 26 15C26 9.81455 26 7.22182 24.389 5.61092C22.7782 4 20.1854 4 15 4C9.81455 4 7.22182 4 5.61092 5.61092C4 7.22182 4 9.81455 4 15C4 20.1854 4 22.7782 5.61092 24.389Z"
    fill="#FF1818"
    opacity="0.3"
  />

  <!-- ✅ АНИМИРУЕМАЯ ЧАСТЬ -->
  <path
    d="M9.87868 20.1213C10.7574 21 12.1716 21 15 21C17.8284 21 19.2427 21 20.1213 20.1213C21 19.2427 21 17.8284 21 15C21 12.1716 21 10.7574 20.1213 9.87868C19.2427 9 17.8284 9 15 9C12.1716 9 10.7574 9 9.87868 9.87868C9 10.7574 9 12.1716 9 15C9 17.8284 9 19.2427 9.87868 20.1213Z"
    fill="#FF1818"
    transformOrigin="15px 15px"
  >

    <!-- лёгкое раздувание -->
    <animateTransform
      attributeName="transform"
      type="scale"
      values="1;1.12;1"
      dur="2.5s"
      repeatCount="indefinite"
    />

    <!-- усиление красного -->
    <animate
      attributeName="fill"
      values="#FF1818;#FF4D4D;#FF1818"
      dur="2.5s"
      repeatCount="indefinite"
    />

  </path>
</svg>
