<svg width="15" height="18" viewBox="0 0 15 18" fill="none" xmlns="http://www.w3.org/2000/svg">
<path d="M0 3.91992L2.18936 7.81695V10.194L0.00256118 14.0834L0 3.91992Z" fill="#5B57A2"/>
<path d="M8.4082 6.39863L10.4597 5.14648L14.6582 5.14258L8.4082 8.95544V6.39863Z" fill="#D90751"/>
<path d="M8.39381 3.89583L8.40542 9.05535L6.21094 7.71259V0L8.39397 3.89583H8.39381Z" fill="#FAB718"/>
<path d="M14.6554 5.14167L10.4568 5.14557L8.39382 3.89583L6.21094 0L14.6553 5.14167H14.6554Z" fill="#ED6F26"/>
<path d="M8.40542 14.1037V11.6005L6.21094 10.2832L6.21214 18.0034L8.40542 14.1037Z" fill="#63B22F"/>
<path d="M10.4526 12.8643L2.18921 7.81695L0 3.91992L14.6474 12.8591L10.4525 12.8643H10.4526Z" fill="#1487C9"/>
<path d="M6.21484 18.003L8.40782 14.1033L10.4542 12.8625L14.649 12.8574L6.21484 18.003Z" fill="#017F36"/>
<path d="M0.00390625 14.0818L6.23104 10.2831L4.1375 9.00391L2.1907 10.1924L0.00390625 14.0818Z" fill="#984995"/>
</svg>
