<svg width="47" height="34" viewBox="0 0 47 34" fill="none" xmlns="http://www.w3.org/2000/svg">
<rect width="47" height="34" rx="17" fill="#CAC9E6"/>
<path d="M20.2305 10.2246L23.149 15.4195V18.5882L20.2339 23.7729L20.2305 10.2246Z" fill="#5B57A2"/>
<path d="M31.4395 13.5298L34.1742 11.8607L39.771 11.8555L31.4395 16.9381V13.5298Z" fill="#D90751"/>
<path d="M31.4196 10.1933L31.4351 17.0711L28.5098 15.2811V5L31.4198 10.1933H31.4196Z" fill="#FAB718"/>
<path d="M39.7666 11.854L34.1696 11.8592L31.4196 10.1933L28.5098 5L39.7664 11.854H39.7666Z" fill="#ED6F26"/>
<path d="M31.4351 23.8019V20.4649L28.5098 18.709L28.5114 29.0003L31.4351 23.8019Z" fill="#63B22F"/>
<path d="M34.1642 22.1477L23.1488 15.4195L20.2305 10.2246L39.7559 22.1409L34.164 22.1477H34.1642Z" fill="#1487C9"/>
<path d="M28.5156 28.9979L31.4389 23.7994L34.1668 22.1455L39.7586 22.1387L28.5156 28.9979Z" fill="#017F36"/>
<path d="M20.2363 23.771L28.5373 18.7071L25.7465 17.002L23.1514 18.5863L20.2363 23.771Z" fill="#984995"/>
<path d="M17.88 23.6607C17.22 23.8907 16.46 24.0007 15.63 24.0007H7.25C6.42 24.0007 5.66 23.8907 5 23.6607C5.35 21.0207 8.11 18.9707 11.44 18.9707C14.77 18.9707 17.53 21.0207 17.88 23.6607Z" fill="#5B57A2"/>
<path d="M15.0194 13.58C15.0194 15.56 13.4194 17.17 11.4394 17.17C9.45938 17.17 7.85938 15.56 7.85938 13.58C7.85938 11.6 9.45938 10 11.4394 10C13.4194 10 15.0194 11.6 15.0194 13.58Z" fill="#5B57A2"/>
</svg>
