<svg width="11" height="11" viewBox="0 0 11 11" fill="none" xmlns="http://www.w3.org/2000/svg">
<path d="M0 0H10.8V5.0592C10.8 6.45162 10.0572 7.73835 8.85138 8.43461L5.40004 10.4276L1.94864 8.43461C0.742805 7.73835 1.23782e-06 6.45162 1.23782e-06 5.0592L0 0Z" fill="#FFDD2D"/>
<path fill-rule="evenodd" clip-rule="evenodd" d="M2.97852 2.60742V4.28615C3.20807 4.02691 3.62545 3.85151 4.10268 3.85151H4.62127V5.80299C4.62127 6.32217 4.4802 6.83056 4.2709 7.08052H6.52673C6.31788 6.8303 6.17714 6.32255 6.17714 5.804V3.85151H6.69576C7.17298 3.85151 7.59034 4.02691 7.81989 4.28615V2.60742H2.97852Z" fill="#333333"/>
</svg>
