<svg width="16" height="16" viewBox="0 0 16 16" fill="none" xmlns="http://www.w3.org/2000/svg">
<path d="M11.3577 0H4.65032C1.73687 0 0 1.736 0 4.648V11.344C0 14.264 1.73687 16 4.65032 16H11.3497C14.2631 16 16 14.264 16 11.352V4.648C16.008 1.736 14.2711 0 11.3577 0ZM11.9099 7.624C11.9099 7.936 11.6618 8.184 11.3497 8.184C11.0375 8.184 10.7894 7.936 10.7894 7.624V7.48L8.61229 9.656C8.49223 9.776 8.33215 9.832 8.16407 9.816C7.99598 9.8 7.84391 9.712 7.75586 9.568L6.93946 8.352L5.03451 10.256C4.92245 10.368 4.78639 10.416 4.64231 10.416C4.49824 10.416 4.35417 10.36 4.25012 10.256C4.03401 10.04 4.03401 9.688 4.25012 9.464L6.63531 7.08C6.75537 6.96 6.91545 6.904 7.08353 6.92C7.25161 6.936 7.40369 7.024 7.49173 7.168L8.30814 8.384L9.99698 6.696H9.85291C9.54075 6.696 9.29263 6.448 9.29263 6.136C9.29263 5.824 9.54075 5.576 9.85291 5.576H11.3417C11.4137 5.576 11.4857 5.592 11.5578 5.616C11.6938 5.672 11.8059 5.784 11.8619 5.92C11.8939 5.992 11.9019 6.064 11.9019 6.136V7.624H11.9099Z" fill="#3083FF"/>
</svg>
