<svg width="30" height="30" viewBox="0 0 30 30" fill="none" xmlns="http://www.w3.org/2000/svg">
<path d="M2.1967 27.8032C4.39339 30 7.92893 30 15 30C22.071 30 25.6066 30 27.8032 27.8032C30 25.6066 30 22.071 30 15C30 7.92893 30 4.39339 27.8032 2.1967C25.6066 -2.38419e-07 22.071 0 15 0C7.92893 0 4.39339 -2.38419e-07 2.1967 2.1967C-2.38419e-07 4.39339 0 7.92893 0 15C0 22.071 -2.38419e-07 25.6066 2.1967 27.8032Z" fill="#FDF0FF"/>
<path d="M11.25 10.125C8.5576 10.125 6.375 12.3077 6.375 15C6.375 17.6924 8.5576 19.875 11.25 19.875C13.9424 19.875 16.125 17.6924 16.125 15C16.125 14.3787 16.6287 13.875 17.25 13.875C17.8713 13.875 18.375 14.3787 18.375 15C18.375 18.9351 15.1851 22.125 11.25 22.125C7.31498 22.125 4.125 18.9351 4.125 15C4.125 11.065 7.31498 7.875 11.25 7.875C11.8713 7.875 12.375 8.37868 12.375 9C12.375 9.62132 11.8713 10.125 11.25 10.125Z" fill="#440A8F"/>
<path d="M23.625 15C23.625 17.6924 21.4424 19.875 18.75 19.875C18.1287 19.875 17.625 20.3787 17.625 21C17.625 21.6213 18.1287 22.125 18.75 22.125C22.6851 22.125 25.875 18.9351 25.875 15C25.875 11.065 22.6851 7.875 18.75 7.875C14.8149 7.875 11.625 11.065 11.625 15C11.625 15.6213 12.1287 16.125 12.75 16.125C13.3713 16.125 13.875 15.6213 13.875 15C13.875 12.3077 16.0577 10.125 18.75 10.125C21.4424 10.125 23.625 12.3077 23.625 15Z" fill="#440A8F"/>
</svg>
