<svg width="156" height="44" viewBox="0 0 156 44" fill="none" xmlns="http://www.w3.org/2000/svg">
<path d="M89.9837 34.6808C88.6997 34.9208 87.4397 35.0228 86.2037 34.9868C84.9797 34.9628 83.8817 34.7408 82.9097 34.3208C81.9377 33.8888 81.1997 33.2108 80.6957 32.2868C80.2517 31.4468 80.0177 30.5888 79.9937 29.7128C79.9697 28.8368 79.9577 27.8468 79.9577 26.7428V9.84082H84.2777V26.4908C84.2777 27.2708 84.2837 27.9548 84.2957 28.5428C84.3197 29.1308 84.4457 29.6108 84.6737 29.9828C85.1057 30.7028 85.7957 31.1048 86.7437 31.1888C87.6917 31.2728 88.7717 31.2248 89.9837 31.0448V34.6808ZM76.4297 18.6428V15.2408H89.9837V18.6428H76.4297Z" fill="#440A8F"/>
<path d="M66.6173 35.2212C64.2173 35.2212 62.2673 34.6812 60.7673 33.6012C59.2673 32.5212 58.3553 31.0032 58.0312 29.0472L62.4593 28.3632C62.6873 29.3232 63.1912 30.0792 63.9712 30.6312C64.7512 31.1832 65.7353 31.4592 66.9233 31.4592C67.9673 31.4592 68.7713 31.2552 69.3353 30.8472C69.9113 30.4272 70.1993 29.8572 70.1993 29.1372C70.1993 28.6932 70.0913 28.3392 69.8753 28.0752C69.6713 27.7992 69.2153 27.5352 68.5073 27.2832C67.7993 27.0312 66.7132 26.7132 65.2492 26.3292C63.6172 25.8972 62.3213 25.4352 61.3613 24.9432C60.4013 24.4392 59.7113 23.8452 59.2913 23.1612C58.8713 22.4772 58.6613 21.6492 58.6613 20.6772C58.6613 19.4652 58.9793 18.4092 59.6153 17.5092C60.2513 16.6092 61.1393 15.9192 62.2793 15.4392C63.4193 14.9472 64.7633 14.7012 66.3113 14.7012C67.8233 14.7012 69.1613 14.9352 70.3253 15.4032C71.5013 15.8712 72.4493 16.5372 73.1693 17.4012C73.8893 18.2652 74.3333 19.2792 74.5013 20.4432L70.0733 21.2352C69.9653 20.4072 69.5873 19.7532 68.9393 19.2732C68.3033 18.7932 67.4513 18.5232 66.3833 18.4632C65.3633 18.4032 64.5412 18.5592 63.9172 18.9312C63.2932 19.2912 62.9813 19.8012 62.9813 20.4612C62.9813 20.8332 63.1073 21.1512 63.3593 21.4152C63.6113 21.6792 64.1153 21.9432 64.8713 22.2072C65.6393 22.4712 66.7792 22.7952 68.2912 23.1792C69.8392 23.5752 71.0753 24.0312 71.9993 24.5472C72.9353 25.0512 73.6073 25.6572 74.0153 26.3652C74.4353 27.0732 74.6453 27.9312 74.6453 28.9392C74.6453 30.8952 73.9313 32.4312 72.5033 33.5472C71.0873 34.6632 69.1253 35.2212 66.6173 35.2212Z" fill="#440A8F"/>
<path d="M43.8688 35.2392C42.4288 35.2392 41.2407 34.9992 40.3047 34.5192C39.3687 34.0392 38.6248 33.4272 38.0728 32.6832C37.5208 31.9392 37.1128 31.1472 36.8488 30.3072C36.5848 29.4672 36.4108 28.6752 36.3268 27.9312C36.2548 27.1752 36.2188 26.5632 36.2188 26.0952V15.2412H40.6108V24.6012C40.6108 25.2012 40.6528 25.8792 40.7368 26.6352C40.8208 27.3792 41.0128 28.0992 41.3128 28.7952C41.6248 29.4792 42.0808 30.0432 42.6808 30.4872C43.2928 30.9312 44.1148 31.1532 45.1468 31.1532C45.6988 31.1532 46.2448 31.0632 46.7848 30.8832C47.3248 30.7032 47.8108 30.3972 48.2428 29.9652C48.6868 29.5212 49.0408 28.9152 49.3048 28.1472C49.5688 27.3792 49.7008 26.4072 49.7008 25.2312L52.2748 26.3292C52.2748 27.9852 51.9508 29.4852 51.3027 30.8292C50.6667 32.1732 49.7247 33.2472 48.4767 34.0512C47.2287 34.8432 45.6928 35.2392 43.8688 35.2392ZM50.2228 34.6812V28.6512H49.7008V15.2412H54.0568V34.6812H50.2228Z" fill="#440A8F"/>
<path d="M22.2031 34.6805V15.2405H26.0371V19.9745L25.5691 19.3625C25.8091 18.7145 26.1271 18.1265 26.5231 17.5985C26.9311 17.0585 27.4171 16.6145 27.9811 16.2665C28.4611 15.9425 28.9891 15.6905 29.5651 15.5105C30.1531 15.3185 30.7531 15.2045 31.3651 15.1685C31.9771 15.1205 32.5711 15.1445 33.1471 15.2405V19.2905C32.5711 19.1225 31.9051 19.0685 31.1491 19.1285C30.4051 19.1885 29.7331 19.3985 29.1331 19.7585C28.5331 20.0825 28.0411 20.4965 27.6571 21.0005C27.2851 21.5045 27.0091 22.0805 26.8291 22.7285C26.6491 23.3645 26.5591 24.0545 26.5591 24.7985V34.6805H22.2031Z" fill="#440A8F"/>
<path d="M8.388 34.6807V12.8287H0V8.76074H21.114V12.8287H12.726V34.6807H8.388Z" fill="#440A8F"/>
<path d="M139.766 35.0499L139.784 9.12988H142.448V24.9699L151.124 15.6099H154.652L145.544 25.3299L155.84 35.0499H151.988L142.448 25.6899V35.0499H139.766Z" fill="#A808C8"/>
<path d="M132.449 35.05V25.132C132.449 24.052 132.347 23.062 132.143 22.162C131.939 21.25 131.609 20.458 131.153 19.786C130.709 19.102 130.127 18.574 129.407 18.202C128.699 17.83 127.835 17.644 126.815 17.644C125.879 17.644 125.051 17.806 124.331 18.13C123.623 18.454 123.023 18.922 122.531 19.534C122.051 20.134 121.685 20.866 121.433 21.73C121.181 22.594 121.055 23.578 121.055 24.682L119.183 24.268C119.183 22.276 119.531 20.602 120.227 19.246C120.923 17.89 121.883 16.864 123.107 16.168C124.331 15.472 125.735 15.124 127.319 15.124C128.483 15.124 129.497 15.304 130.361 15.664C131.237 16.024 131.975 16.51 132.575 17.122C133.187 17.734 133.679 18.436 134.051 19.228C134.423 20.008 134.693 20.842 134.861 21.73C135.029 22.606 135.113 23.482 135.113 24.358V35.05H132.449ZM118.391 35.05V15.61H120.785V20.398H121.055V35.05H118.391Z" fill="#A808C8"/>
<path d="M110.367 11.9202V8.9502H113.013V11.9202H110.367ZM110.367 35.0502V15.6102H113.013V35.0502H110.367Z" fill="#A808C8"/>
<path d="M91.9844 35.0499V9.12988H94.6304V32.5119H106.942V35.0499H91.9844Z" fill="#A808C8"/>
</svg>
